<svg width="42" height="42" viewBox="0 0 42 42" fill="none" xmlns="http://www.w3.org/2000/svg">
<path d="M17.7016 23.0638C17.7016 24.2548 16.7362 25.2203 15.5451 25.2203C14.3542 25.2203 13.3887 24.2549 13.3887 23.0638C13.3887 21.8728 14.3542 20.9073 15.5451 20.9073C16.7362 20.9073 17.7016 21.8729 17.7016 23.0638ZM26.4549 20.9073C25.2639 20.9073 24.2984 21.8728 24.2984 23.0639C24.2984 24.2549 25.2639 25.2203 26.4549 25.2203C27.6458 25.2203 28.6114 24.2549 28.6114 23.0639C28.6113 21.8729 27.6459 20.9073 26.4549 20.9073ZM42 21.8617V25.9601C42 28.0177 40.332 29.6857 38.2744 29.6857H35.5708C32.892 37.1238 26.0513 41.6165 21 41.6165C15.9487 41.6165 9.10803 37.1238 6.42916 29.6856H3.72565C1.66799 29.6856 0 28.0177 0 25.96V21.8617C0 20.4458 0.789971 19.2145 1.95314 18.5842C1.99219 12.7656 3.68804 8.22129 7.00089 5.07973C10.2869 1.96363 14.9969 0.383484 21 0.383484C27.0031 0.383484 31.7131 1.96363 34.9991 5.07966C38.3119 8.22122 40.0077 12.7656 40.0469 18.5841C41.21 19.2145 42 20.4458 42 21.8617ZM34.1146 23.0774C34.1146 22.1188 34.0656 21.218 33.9931 20.3452C32.3397 18.8325 29.338 17.6846 25.5497 17.2581C26.0471 17.8174 26.4767 18.5531 26.7373 19.5216C24.4169 17.6936 19.8622 18.1287 16.417 14.0379C16.2195 13.8095 16.0487 13.5912 15.901 13.3917C15.8993 13.3893 15.8973 13.3874 15.8956 13.3851L15.896 13.3852C15.2831 12.5563 15.0742 12.0633 15.0625 12.609C14.9614 17.3109 11.6288 20.9764 7.92812 21.4936C7.90472 22.0107 7.88557 22.5328 7.88557 23.0775C7.88557 25.0649 8.21011 26.8761 8.76187 28.5084C10.8406 31.0159 14.2735 31.7239 17.3119 31.9117C17.8759 31.0143 19.1415 30.3878 20.6153 30.3878C22.6136 30.3878 24.2334 31.5376 24.2334 32.9561C24.2334 34.3745 22.6135 35.5243 20.6153 35.5243C19.0783 35.5243 17.7685 34.8428 17.2442 33.8833C15.1207 33.7598 12.7863 33.3978 10.7057 32.4153C13.6315 36.728 18.1674 39.0085 21 39.0085C25.4511 39.0085 34.1146 33.3855 34.1146 23.0774ZM37.8038 18.1361C37.5667 7.9826 31.7711 2.61895 21 2.61895C10.2289 2.61895 4.4334 7.9826 4.19623 18.1361H5.62965C6.15376 14.7139 7.26147 11.8994 8.94332 9.73528C11.6234 6.28688 15.6799 4.53833 21 4.53833C26.3201 4.53833 30.3766 6.28688 33.0568 9.73528C34.7385 11.8993 35.8463 14.7139 36.3704 18.1361H37.8038Z" fill="white"/>
</svg>
