<svg width="45" height="45" viewBox="0 0 45 45" fill="none" xmlns="http://www.w3.org/2000/svg">
<path d="M44.9994 24.5688C44.9994 23.6836 44.7996 22.8382 44.4387 22.0648C44.4015 21.8681 44.3589 21.6718 44.3058 21.4727L40.3969 11.7855L40.3705 11.6983C39.0028 7.6261 37.0568 3.85718 32.1224 3.85718H13.2562C8.20011 3.85718 6.41346 7.71949 5.01585 11.6757L0.927152 21.3865C0.336059 22.3336 0 23.4169 0 24.5688V27.5831C0 28.0492 0.0550883 28.5051 0.159836 28.9442C0.0580036 29.2095 0 29.4953 0 29.7967V38.7621C0 40.0768 1.06578 41.1428 2.38046 41.1428H7.32031C8.63429 41.1428 9.70006 40.0768 9.70006 38.7621V34.2788H35.5815V38.7621C35.5815 40.0768 36.6475 41.1428 37.9623 41.1428H42.6192C43.9344 41.1428 45 40.0768 45 38.7621V29.7957C45 29.4955 44.9414 29.2083 44.8404 28.9439C44.9447 28.5041 45 28.0487 45 27.5827V24.5689H44.9994V24.5688ZM7.91683 12.6483C9.47328 8.257 10.7249 6.91649 13.2562 6.91649H32.1213C34.634 6.91649 36.0331 8.41161 37.4548 12.6294L40.3072 18.4098C39.3759 18.0649 38.3509 17.8735 37.2741 17.8735H7.72533C6.75575 17.8735 5.82921 18.0294 4.97433 18.3116L7.91683 12.6483ZM10.3672 28.7279H5.15508C4.21667 28.7279 3.45558 27.9662 3.45558 27.0278C3.45558 26.0892 4.21667 25.3279 5.15508 25.3279H10.3672C11.306 25.3279 12.0671 26.0892 12.0671 27.0278C12.0671 27.9662 11.3055 28.7279 10.3672 28.7279ZM28.779 28.3875H16.6556C16.0612 28.3875 15.5795 27.9055 15.5795 27.3114C15.5795 26.7162 16.0612 26.2345 16.6556 26.2345H28.779C29.3741 26.2345 29.8556 26.7162 29.8556 27.3114C29.8556 27.9055 29.3741 28.3875 28.779 28.3875ZM39.7129 28.7279H34.5011C33.5618 28.7279 32.8012 27.9662 32.8012 27.0278C32.8012 26.0892 33.5624 25.3279 34.5011 25.3279H39.7129C40.6521 25.3279 41.4134 26.0892 41.4134 27.0278C41.4134 27.9662 40.6521 28.7279 39.7129 28.7279Z" fill="white"/>
</svg>
