<svg width="18" height="18" viewBox="0 0 18 18" fill="none" xmlns="http://www.w3.org/2000/svg">
<path d="M9 0C4.0374 0 0 4.0374 0 9C0 13.9626 4.0374 18 9 18C13.9626 18 18 13.9626 18 9C18 4.0374 13.9626 0 9 0ZM9 16.085C5.09339 16.085 1.91486 12.9068 1.91486 9C1.91486 5.09321 5.09339 1.91505 9 1.91505C12.9066 1.91505 16.0851 5.09321 16.0851 9C16.0851 12.9068 12.9066 16.085 9 16.085Z" fill="black"/>
<path d="M13.6904 8.72211H9.64582V3.859C9.64582 3.44975 9.31402 3.11795 8.90477 3.11795C8.49553 3.11795 8.16373 3.44975 8.16373 3.859V9.46315C8.16373 9.87239 8.49553 10.2042 8.90477 10.2042H13.6904C14.0997 10.2042 14.4315 9.87239 14.4315 9.46315C14.4315 9.05391 14.0997 8.72211 13.6904 8.72211Z" fill="black"/>
</svg>
