<svg width="52" height="52" viewBox="0 0 52 52" fill="none" xmlns="http://www.w3.org/2000/svg">
<path d="M45.7842 8.6073H6.21599C2.78842 8.6073 0 11.3956 0 14.8233V37.1766C0 40.6041 2.78842 43.3926 6.21599 43.3926H45.7841C49.2116 43.3926 52 40.6041 52 37.1766V14.8233C52.0001 11.3956 49.2117 8.6073 45.7842 8.6073ZM48.5608 37.1765C48.5608 38.7076 47.3152 39.9531 45.7842 39.9531H6.21599C4.68495 39.9531 3.43934 38.7076 3.43934 37.1765V22.1967H48.5607L48.5608 37.1765ZM48.5608 17.2899L3.43945 17.2931V14.8232C3.43945 13.2921 4.68507 12.0465 6.2161 12.0465H45.7842C47.3152 12.0465 48.5608 13.2921 48.5608 14.8232V17.2899Z" fill="white"/>
<path d="M7.70786 36.7633H17.1232C17.4604 36.7633 17.7339 36.49 17.7339 36.1529V34.2952C17.7339 33.958 17.4604 33.6847 17.1232 33.6847H7.70786C7.37064 33.6847 7.09721 33.958 7.09721 34.2952V36.1529C7.0971 36.49 7.37052 36.7633 7.70786 36.7633Z" fill="white"/>
<path d="M38.232 36.7632H41.0325C42.6489 36.7632 43.9591 35.453 43.9591 33.8368V31.0363C43.9591 29.4201 42.6489 28.1099 41.0325 28.1099H38.232C36.6158 28.1099 35.3056 29.4201 35.3056 31.0363V33.8368C35.3056 35.453 36.6158 36.7632 38.232 36.7632Z" fill="white"/>
</svg>
