<svg width="15" height="17" viewBox="0 0 15 17" fill="none" xmlns="http://www.w3.org/2000/svg">
<path d="M7.49983 0.434753C3.35783 0.434753 0 4.00125 0 8.40049C0 12.7996 3.35783 16.3664 7.49983 16.3664C11.6418 16.3664 14.9999 12.7996 14.9999 8.40049C14.9999 4.00125 11.6418 0.434753 7.49983 0.434753ZM7.49997 3.2327L11.9382 6.17211H3.06178L7.49997 3.2327ZM11.9935 10.866H11.993C11.993 11.3375 11.6333 11.7195 11.1894 11.7195H3.81054C3.36663 11.7195 3.00693 11.3374 3.00693 10.866V6.35915C3.00693 6.30929 3.01173 6.2608 3.01953 6.21316L7.25997 9.02157C7.26517 9.02502 7.27072 9.02736 7.27607 9.03054C7.28167 9.03384 7.28737 9.03702 7.29307 9.04005C7.32302 9.05646 7.35387 9.06968 7.38542 9.07834C7.38867 9.0793 7.39192 9.07972 7.39517 9.08052C7.42977 9.08917 7.46483 9.09459 7.49983 9.09459H7.50008C7.50033 9.09459 7.50058 9.09459 7.50058 9.09459C7.53558 9.09459 7.57063 9.08933 7.60523 9.08052C7.60848 9.07967 7.61173 9.0793 7.61498 9.07834C7.64648 9.06968 7.67723 9.05646 7.70733 9.04005C7.71303 9.03702 7.71873 9.03384 7.72433 9.03054C7.72963 9.02736 7.73523 9.02502 7.74043 9.02157L11.9809 6.21316C11.9887 6.2608 11.9935 6.30918 11.9935 6.35915V10.866Z" fill="black"/>
</svg>
