<svg width="18" height="18" viewBox="0 0 18 18" fill="none" xmlns="http://www.w3.org/2000/svg">
<g clip-path="url(#clip0_9_44)">
<path d="M9 0C4.03742 0 0 4.03742 0 9C0 13.9622 4.03742 18 9 18C13.9622 18 18 13.9622 18 9C18 4.03742 13.9629 0 9 0ZM11.2382 9.31685H9.77399C9.77399 11.6562 9.77399 14.5357 9.77399 14.5357H7.60429C7.60429 14.5357 7.60429 11.6841 7.60429 9.31685H6.57291V7.47233H7.60429V6.27926C7.60429 5.4248 8.01031 4.08962 9.79393 4.08962L11.4017 4.09579V5.88629C11.4017 5.88629 10.4247 5.88629 10.2348 5.88629C10.0448 5.88629 9.77471 5.98127 9.77471 6.38875V7.47269H11.4278L11.2382 9.31685Z" fill="#C4C4C4"/>
</g>
<defs>
<clipPath id="clip0_9_44">
<rect width="18" height="18" fill="white"/>
</clipPath>
</defs>
</svg>
