<svg width="17" height="17" viewBox="0 0 17 17" fill="none" xmlns="http://www.w3.org/2000/svg">
<path d="M8.49967 10.2017C9.43745 10.2017 10.202 9.43849 10.202 8.50001C10.202 8.12956 10.0808 7.78752 9.88015 7.50813C9.57098 7.07947 9.06836 6.79837 8.50069 6.79837C7.93268 6.79837 7.4304 7.07912 7.12055 7.50779C6.91923 7.78717 6.79905 8.12921 6.79871 8.49967C6.79768 9.43814 7.56154 10.2017 8.49967 10.2017Z" fill="#C4C4C4"/>
<path d="M12.2155 6.41831V4.99194V4.77966L12.0022 4.78035L10.5765 4.7848L10.582 6.42379L12.2155 6.41831Z" fill="#C4C4C4"/>
<path d="M8.5 0C3.81312 0 0 3.81312 0 8.5C0 13.1865 3.81312 17 8.5 17C13.1865 17 17 13.1865 17 8.5C17 3.81312 13.1872 0 8.5 0ZM13.3341 7.50812V11.4661C13.3341 12.497 12.496 13.3348 11.4657 13.3348H5.53428C4.50371 13.3348 3.66589 12.497 3.66589 11.4661V7.50812V5.53462C3.66589 4.50405 4.50371 3.66624 5.53428 3.66624H11.4654C12.496 3.66624 13.3341 4.50405 13.3341 5.53462V7.50812Z" fill="#C4C4C4"/>
<path d="M11.1442 8.5C11.1442 9.95753 9.95818 11.1442 8.49997 11.1442C7.04176 11.1442 5.85609 9.95753 5.85609 8.5C5.85609 8.1494 5.92594 7.81421 6.05057 7.50812H4.60742V11.4661C4.60742 11.9776 5.02273 12.3919 5.53391 12.3919H11.465C11.9755 12.3919 12.3915 11.9776 12.3915 11.4661V7.50812H10.9477C11.0733 7.81421 11.1442 8.1494 11.1442 8.5Z" fill="#C4C4C4"/>
</svg>
