<svg width="20" height="20" viewBox="0 0 20 20" fill="none" xmlns="http://www.w3.org/2000/svg">
<g clip-path="url(#clip0_429_24)">
<path d="M7.77599 0C3.48335 0 0.00276184 3.48059 0.00276184 7.77327C0.00276184 12.0659 3.48335 15.5465 7.77603 15.5465C9.42673 15.5465 10.9576 15.0317 12.2159 14.1547L12.2169 14.1537L17.9819 19.9188C18.0888 20.0257 18.2589 20.0285 18.3687 19.9188L19.9224 18.365C20.0294 18.258 20.0239 18.0806 19.9215 17.9782L14.1574 12.2141C15.0344 10.9548 15.5493 9.42393 15.5493 7.77327C15.5493 3.48059 12.0687 0 7.77599 0ZM7.77599 13.7175C4.49293 13.7175 1.83174 11.0563 1.83174 7.77327C1.83174 4.4902 4.49296 1.82901 7.77599 1.82901C11.059 1.82901 13.7203 4.4902 13.7203 7.77327C13.7203 11.0563 11.0591 13.7175 7.77599 13.7175Z" fill="white"/>
</g>
<defs>
<clipPath id="clip0_429_24">
<rect width="20" height="20" fill="white"/>
</clipPath>
</defs>
</svg>
