<svg width="15" height="15" viewBox="0 0 15 15" fill="none" xmlns="http://www.w3.org/2000/svg">
<g clip-path="url(#clip0_9_733)">
<path d="M14.1734 5.90187L13.1249 5.724C13.0157 5.37138 12.8752 5.03125 12.7036 4.70671L13.3215 3.84233C13.5836 3.47411 13.543 2.97171 13.2216 2.65342L12.2917 1.7235C12.117 1.54875 11.886 1.45202 11.6395 1.45202C11.4461 1.45202 11.2619 1.51131 11.1059 1.62364L10.2384 2.24151C9.9014 2.06364 9.54878 1.91697 9.18368 1.80776L9.00893 0.771744C8.93404 0.32551 8.55021 0.000976562 8.09774 0.000976562H6.784C6.33153 0.000976562 5.9477 0.32551 5.87281 0.771744L5.69182 1.83272C5.34232 1.94194 5.00219 2.08548 4.67765 2.26023L3.81951 1.64237C3.66349 1.53003 3.47625 1.47074 3.28278 1.47074C3.03626 1.47074 2.80222 1.56748 2.6306 1.74222L1.69756 2.67214C1.37927 2.99043 1.33558 3.49283 1.5977 3.86105L2.22181 4.73792C2.05018 5.06557 1.91288 5.40571 1.80678 5.75833L0.770768 5.93308C0.324534 6.00797 0 6.39179 0 6.84427V8.15801C0 8.61048 0.324534 8.9943 0.770768 9.0692L1.83174 9.25019C1.94096 9.59968 2.0845 9.93982 2.25925 10.2644L1.64451 11.1194C1.38239 11.4876 1.42296 11.99 1.74437 12.3083L2.67428 13.2382C2.84903 13.413 3.07995 13.5097 3.32647 13.5097C3.51994 13.5097 3.70405 13.4504 3.86008 13.3381L4.73694 12.714C5.05212 12.8793 5.38289 13.0135 5.72303 13.1196L5.89778 14.1681C5.97267 14.6144 6.35649 14.9389 6.80897 14.9389H8.12582C8.5783 14.9389 8.96212 14.6144 9.03701 14.1681L9.21488 13.1196C9.5675 13.0104 9.90764 12.87 10.2322 12.6984L11.0966 13.3162C11.2526 13.4286 11.4398 13.4878 11.6333 13.4878C11.8798 13.4878 12.1107 13.3911 12.2855 13.2164L13.2154 12.2864C13.5337 11.9682 13.5774 11.4658 13.3152 11.0975L12.6974 10.23C12.869 9.90237 13.0126 9.56224 13.1186 9.21274L14.1671 9.03799C14.6134 8.9631 14.9379 8.57928 14.9379 8.1268V6.81306C14.9442 6.36059 14.6196 5.97676 14.1734 5.90187ZM14.1016 8.1268C14.1016 8.16737 14.0735 8.20169 14.033 8.20793L12.7223 8.42637C12.557 8.45445 12.4259 8.57615 12.3853 8.7353C12.2667 9.19402 12.0858 9.63401 11.8424 10.0428C11.7581 10.1863 11.7643 10.3642 11.8611 10.5015L12.6318 11.5875C12.6537 11.6187 12.6506 11.6655 12.6225 11.6936L11.6926 12.6235C11.6707 12.6453 11.6489 12.6484 11.6333 12.6484C11.6146 12.6484 11.599 12.6422 11.5865 12.6328L10.5037 11.8621C10.3695 11.7653 10.1885 11.7591 10.0449 11.8433C9.63615 12.0867 9.19616 12.2677 8.73744 12.3863C8.57518 12.4269 8.45348 12.5611 8.42851 12.7233L8.20696 14.0339C8.20072 14.0745 8.16639 14.1026 8.12582 14.1026H6.81209C6.77152 14.1026 6.73719 14.0745 6.73095 14.0339L6.51252 12.7233C6.48443 12.5579 6.36273 12.4269 6.20359 12.3863C5.75735 12.2708 5.32672 12.093 4.92417 11.8621C4.85864 11.8246 4.78375 11.8059 4.71198 11.8059C4.62773 11.8059 4.54035 11.8309 4.46858 11.8839L3.3764 12.6609C3.3608 12.6703 3.34519 12.6765 3.32959 12.6765C3.31711 12.6765 3.29214 12.6734 3.2703 12.6515L2.34039 11.7216C2.3123 11.6936 2.30918 11.6499 2.33103 11.6155L3.09867 10.539C3.19541 10.4017 3.20165 10.2207 3.1174 10.0771C2.874 9.67146 2.68676 9.23146 2.56818 8.77275C2.5245 8.6136 2.39344 8.4919 2.23117 8.46382L0.911191 8.23914C0.870624 8.2329 0.842539 8.19857 0.842539 8.15801V6.84427C0.842539 6.8037 0.870624 6.76938 0.911191 6.76313L2.21245 6.5447C2.37783 6.51661 2.51202 6.39491 2.55258 6.23265C2.66804 5.77393 2.84591 5.33082 3.08619 4.92203C3.17044 4.77849 3.16108 4.60062 3.06435 4.46643L2.28734 3.37425C2.26549 3.34305 2.26862 3.29624 2.2967 3.26816L3.22661 2.33824C3.24846 2.3164 3.2703 2.31328 3.2859 2.31328C3.30463 2.31328 3.32023 2.31952 3.33271 2.32888L4.40929 3.09653C4.54659 3.19326 4.72758 3.19951 4.87113 3.11525C5.27679 2.87185 5.71679 2.68462 6.1755 2.56604C6.33465 2.52235 6.45635 2.39129 6.48443 2.22903L6.70911 0.909047C6.71535 0.86848 6.74968 0.840395 6.79024 0.840395H8.10398C8.14455 0.840395 8.17887 0.86848 8.18511 0.909047L8.40355 2.2103C8.43163 2.37569 8.55333 2.50987 8.7156 2.55044C9.1868 2.66902 9.63615 2.85313 10.0543 3.09965C10.1978 3.1839 10.3757 3.17766 10.513 3.08093L11.5896 2.30704C11.6052 2.29768 11.6208 2.29144 11.6364 2.29144C11.6489 2.29144 11.6739 2.29456 11.6957 2.3164L12.6256 3.24631C12.6537 3.2744 12.6568 3.31809 12.635 3.35241L11.8642 4.43523C11.7675 4.56941 11.7612 4.7504 11.8455 4.89395C12.0889 5.30273 12.2699 5.74273 12.3884 6.20144C12.429 6.36371 12.5632 6.48541 12.7255 6.51037L14.0361 6.73193C14.0766 6.73817 14.1047 6.7725 14.1047 6.81306V8.1268H14.1016Z" fill="#868686"/>
<path d="M7.4705 4.2439C5.69181 4.2439 4.24701 5.6887 4.24701 7.46739C4.24701 9.24608 5.69181 10.6909 7.4705 10.6909C9.2492 10.6909 10.694 9.24608 10.694 7.46739C10.694 5.6887 9.2492 4.2439 7.4705 4.2439ZM7.4705 9.84834C6.15677 9.84834 5.08955 8.78113 5.08955 7.46739C5.08955 6.15365 6.15677 5.08644 7.4705 5.08644C8.78424 5.08644 9.85146 6.15365 9.85146 7.46739C9.85146 8.78113 8.78424 9.84834 7.4705 9.84834Z" fill="#868686"/>
</g>
<defs>
<clipPath id="clip0_9_733">
<rect width="14.938" height="14.938" fill="white"/>
</clipPath>
</defs>
</svg>
