<svg width="17" height="17" viewBox="0 0 17 17" fill="none" xmlns="http://www.w3.org/2000/svg">
<path d="M8.5 0C3.81312 0 0 3.81312 0 8.5C0 13.1865 3.81312 17 8.5 17C13.1865 17 17 13.1865 17 8.5C17 3.81312 13.1872 0 8.5 0ZM12.2919 6.55458C12.2957 6.63881 12.2977 6.72372 12.2977 6.80863C12.2977 9.39396 10.3304 12.3741 6.73091 12.3741C5.62604 12.3741 4.59752 12.0512 3.73197 11.4959C3.88502 11.514 4.0408 11.5232 4.19864 11.5232C5.11554 11.5232 5.95883 11.2103 6.62854 10.6858C5.77258 10.67 5.04981 10.1044 4.80089 9.32685C4.92004 9.34945 5.04296 9.36212 5.16861 9.36212C5.347 9.36212 5.52024 9.33884 5.68424 9.29399C4.78925 9.11458 4.1151 8.32402 4.1151 7.37561C4.1151 7.3674 4.1151 7.35884 4.11544 7.35096C4.37908 7.49716 4.68072 7.5855 5.00119 7.59542C4.47666 7.24517 4.13119 6.646 4.13119 5.96739C4.13119 5.60858 4.2274 5.27236 4.39586 4.98338C5.36035 6.16735 6.80246 6.94592 8.4281 7.0281C8.39455 6.88464 8.37777 6.7357 8.37777 6.58197C8.37777 5.50175 9.25358 4.62559 10.3338 4.62559C10.8967 4.62559 11.4044 4.86321 11.7619 5.24325C12.208 5.1556 12.6257 4.99331 13.0047 4.76837C12.8575 5.22545 12.5483 5.60858 12.1433 5.85098C12.5394 5.80373 12.9174 5.69897 13.267 5.54318C13.0061 5.93487 12.6743 6.27965 12.2919 6.55458Z" fill="#C4C4C4"/>
</svg>
